<?xml version="1.0" encoding="UTF-8" standalone="no"?>
<!-- Uploaded to: SVG Repo, www.svgrepo.com, Generator: SVG Repo Mixer Tools -->

<svg
   width="800px"
   height="800px"
   viewBox="-3 0 20 20"
   version="1.1"
   id="svg1"
   xmlns="http://www.w3.org/2000/svg"
   xmlns:svg="http://www.w3.org/2000/svg">
  <defs
     id="defs1" />
  <g
     id="eraser"
     transform="matrix(1,0,0,-1,-5,22)">
    <rect
       style="fill:#e6e6e6;fill-opacity:1;stroke:#000000;stroke-width:0.75;stroke-linecap:square;stroke-linejoin:round;paint-order:stroke fill markers"
       id="rect1"
       width="11.571754"
       height="5.8769932"
       x="6.3280182"
       y="-20.906607"
       transform="scale(1,-1)" />
    <path
       id="secondary"
       fill="#2ca9bc"
       d="M 17,3 H 7 A 1,1 0 0 0 6,4 V 15 H 18 V 4 A 1,1 0 0 0 17,3 Z" />
    <path
       id="primary"
       d="M 17,21 H 7 A 1,1 0 0 1 6,20 V 4 A 1,1 0 0 1 7,3 h 10 a 1,1 0 0 1 1,1 v 16 a 1,1 0 0 1 -1,1 z m 1,-1 V 15 H 6 v 5 a 1,1 0 0 0 1,1 h 10 a 1,1 0 0 0 1,-1 z"
       fill="none"
       stroke="#000000"
       stroke-linecap="round"
       stroke-linejoin="round"
       stroke-width="2" />
  </g>
</svg>
